<svg width="3463" height="1678" viewBox="0 0 3463 1678" fill="none" xmlns="http://www.w3.org/2000/svg">
<path d="M205.09 252.5L185.09 276.5C181.424 280.9 187.964 284.5 190.59 281C191.59 279.667 196.158 274.433 198.591 272C200.591 270 203.591 271.433 205.09 273C208.757 276.833 216.69 285.1 219.09 287.5C221.49 289.9 224.757 288.5 226.09 287.5C227.59 285.833 231.29 281.8 234.09 279C236.89 276.2 235.257 272.5 234.09 271C229.924 266.667 220.49 256.9 216.09 252.5C211.69 248.1 206.924 250.666 205.09 252.5Z" fill="#353535"/>
<path d="M246.68 252.429L226.68 276.429C223.013 280.829 228.944 284.148 232.09 281C233.59 279.5 238.157 274.433 240.59 272C242.59 270 245.181 271.362 246.68 272.93C250.347 276.763 258.28 285.03 260.68 287.43C263.08 289.83 266.347 288.43 267.68 287.43C269.18 285.763 272.88 281.73 275.68 278.93C278.48 276.13 276.847 272.43 275.68 270.93C271.513 266.596 262.08 256.829 257.68 252.429C253.28 248.029 248.513 250.596 246.68 252.429Z" fill="#353535"/>
<path d="M288.68 252.429L268.68 276.429C265.013 280.829 270.944 284.148 274.09 281C275.59 279.5 280.157 274.433 282.59 272C284.59 270 287.181 271.362 288.68 272.93C292.347 276.763 300.28 285.03 302.68 287.43C305.08 289.83 308.347 288.43 309.68 287.43C311.18 285.763 314.88 281.73 317.68 278.93C320.48 276.13 318.847 272.43 317.68 270.93C313.513 266.596 304.08 256.829 299.68 252.429C295.28 248.029 290.513 250.596 288.68 252.429Z" fill="#353535"/>
<path d="M330.68 252.429L310.68 276.429C307.013 280.829 312.944 284.148 316.09 281C317.59 279.5 322.157 274.433 324.59 272C326.59 270 329.181 271.362 330.68 272.93C334.347 276.763 342.28 285.03 344.68 287.43C347.08 289.83 350.347 288.43 351.68 287.43C353.18 285.763 356.88 281.73 359.68 278.93C362.48 276.13 360.847 272.43 359.68 270.93C355.513 266.596 346.08 256.829 341.68 252.429C337.28 248.029 332.513 250.596 330.68 252.429Z" fill="#353535"/>
<path d="M372.68 252.429L352.68 276.429C349.013 280.829 354.944 284.148 358.09 281C359.59 279.5 364.157 274.433 366.59 272C368.59 270 371.181 271.362 372.68 272.93C376.347 276.763 384.28 285.03 386.68 287.43C389.08 289.83 392.347 288.43 393.68 287.43C395.18 285.763 398.88 281.73 401.68 278.93C404.48 276.13 402.847 272.43 401.68 270.93C397.513 266.596 388.08 256.829 383.68 252.429C379.28 248.029 374.513 250.596 372.68 252.429Z" fill="#353535"/>
<path d="M414.68 252.429L394.68 276.429C391.013 280.829 396.944 284.148 400.09 281C401.59 279.5 406.157 274.433 408.59 272C410.59 270 413.181 271.362 414.68 272.93C418.347 276.763 426.28 285.03 428.68 287.43C431.08 289.83 434.347 288.43 435.68 287.43C437.18 285.763 440.88 281.73 443.68 278.93C446.48 276.13 444.847 272.43 443.68 270.93C439.513 266.596 430.08 256.829 425.68 252.429C421.28 248.029 416.513 250.596 414.68 252.429Z" fill="#353535"/>
<path d="M456.68 252.429L436.68 276.429C433.013 280.829 438.944 284.148 442.09 281C443.59 279.5 448.157 274.433 450.59 272C452.59 270 455.181 271.362 456.68 272.93C460.347 276.763 468.28 285.03 470.68 287.43C473.08 289.83 476.347 288.43 477.68 287.43C479.18 285.763 482.88 281.73 485.68 278.93C488.48 276.13 486.847 272.43 485.68 270.93C481.513 266.596 472.08 256.829 467.68 252.429C463.28 248.029 458.513 250.596 456.68 252.429Z" fill="#353535"/>
<path d="M1005.68 1464.5L985.68 1488.5C982.014 1492.9 988.554 1496.5 991.18 1493C992.18 1491.67 996.748 1486.43 999.181 1484C1001.18 1482 1004.18 1483.43 1005.68 1485C1009.35 1488.83 1017.28 1497.1 1019.68 1499.5C1022.08 1501.9 1025.35 1500.5 1026.68 1499.5C1028.18 1497.83 1031.88 1493.8 1034.68 1491C1037.48 1488.2 1035.85 1484.5 1034.68 1483C1030.51 1478.67 1021.08 1468.9 1016.68 1464.5C1012.28 1460.1 1007.51 1462.67 1005.68 1464.5Z" fill="#353535"/>
<path d="M1047.27 1464.43L1027.27 1488.43C1023.6 1492.83 1029.53 1496.15 1032.68 1493C1034.18 1491.5 1038.75 1486.43 1041.18 1484C1043.18 1482 1045.77 1483.36 1047.27 1484.93C1050.94 1488.76 1058.87 1497.03 1061.27 1499.43C1063.67 1501.83 1066.94 1500.43 1068.27 1499.43C1069.77 1497.76 1073.47 1493.73 1076.27 1490.93C1079.07 1488.13 1077.44 1484.43 1076.27 1482.93C1072.1 1478.6 1062.67 1468.83 1058.27 1464.43C1053.87 1460.03 1049.1 1462.6 1047.27 1464.43Z" fill="#353535"/>
<path d="M1089.27 1464.43L1069.27 1488.43C1065.6 1492.83 1071.53 1496.15 1074.68 1493C1076.18 1491.5 1080.75 1486.43 1083.18 1484C1085.18 1482 1087.77 1483.36 1089.27 1484.93C1092.94 1488.76 1100.87 1497.03 1103.27 1499.43C1105.67 1501.83 1108.94 1500.43 1110.27 1499.43C1111.77 1497.76 1115.47 1493.73 1118.27 1490.93C1121.07 1488.13 1119.44 1484.43 1118.27 1482.93C1114.1 1478.6 1104.67 1468.83 1100.27 1464.43C1095.87 1460.03 1091.1 1462.6 1089.27 1464.43Z" fill="#353535"/>
<path d="M1131.27 1464.43L1111.27 1488.43C1107.6 1492.83 1113.53 1496.15 1116.68 1493C1118.18 1491.5 1122.75 1486.43 1125.18 1484C1127.18 1482 1129.77 1483.36 1131.27 1484.93C1134.94 1488.76 1142.87 1497.03 1145.27 1499.43C1147.67 1501.83 1150.94 1500.43 1152.27 1499.43C1153.77 1497.76 1157.47 1493.73 1160.27 1490.93C1163.07 1488.13 1161.44 1484.43 1160.27 1482.93C1156.1 1478.6 1146.67 1468.83 1142.27 1464.43C1137.87 1460.03 1133.1 1462.6 1131.27 1464.43Z" fill="#353535"/>
<path d="M1173.27 1464.43L1153.27 1488.43C1149.6 1492.83 1155.53 1496.15 1158.68 1493C1160.18 1491.5 1164.75 1486.43 1167.18 1484C1169.18 1482 1171.77 1483.36 1173.27 1484.93C1176.94 1488.76 1184.87 1497.03 1187.27 1499.43C1189.67 1501.83 1192.94 1500.43 1194.27 1499.43C1195.77 1497.76 1199.47 1493.73 1202.27 1490.93C1205.07 1488.13 1203.44 1484.43 1202.27 1482.93C1198.1 1478.6 1188.67 1468.83 1184.27 1464.43C1179.87 1460.03 1175.1 1462.6 1173.27 1464.43Z" fill="#353535"/>
<path d="M1215.27 1464.43L1195.27 1488.43C1191.6 1492.83 1197.53 1496.15 1200.68 1493C1202.18 1491.5 1206.75 1486.43 1209.18 1484C1211.18 1482 1213.77 1483.36 1215.27 1484.93C1218.94 1488.76 1226.87 1497.03 1229.27 1499.43C1231.67 1501.83 1234.94 1500.43 1236.27 1499.43C1237.77 1497.76 1241.47 1493.73 1244.27 1490.93C1247.07 1488.13 1245.44 1484.43 1244.27 1482.93C1240.1 1478.6 1230.67 1468.83 1226.27 1464.43C1221.87 1460.03 1217.1 1462.6 1215.27 1464.43Z" fill="#353535"/>
<path d="M1257.27 1464.43L1237.27 1488.43C1233.6 1492.83 1239.53 1496.15 1242.68 1493C1244.18 1491.5 1248.75 1486.43 1251.18 1484C1253.18 1482 1255.77 1483.36 1257.27 1484.93C1260.94 1488.76 1268.87 1497.03 1271.27 1499.43C1273.67 1501.83 1276.94 1500.43 1278.27 1499.43C1279.77 1497.76 1283.47 1493.73 1286.27 1490.93C1289.07 1488.13 1287.44 1484.43 1286.27 1482.93C1282.1 1478.6 1272.67 1468.83 1268.27 1464.43C1263.87 1460.03 1259.1 1462.6 1257.27 1464.43Z" fill="#353535"/>
<path d="M2745.68 291.5L2725.68 315.5C2722.01 319.9 2728.55 323.5 2731.18 320C2732.18 318.667 2736.75 313.433 2739.18 311C2741.18 309 2744.18 310.433 2745.68 312C2749.35 315.833 2757.28 324.1 2759.68 326.5C2762.08 328.9 2765.35 327.5 2766.68 326.5C2768.18 324.833 2771.88 320.8 2774.68 318C2777.48 315.2 2775.85 311.5 2774.68 310C2770.51 305.667 2761.08 295.9 2756.68 291.5C2752.28 287.1 2747.51 289.666 2745.68 291.5Z" fill="#353535"/>
<path d="M2787.27 291.429L2767.27 315.429C2763.6 319.829 2769.53 323.148 2772.68 320C2774.18 318.5 2778.75 313.433 2781.18 311C2783.18 309 2785.77 310.362 2787.27 311.93C2790.94 315.763 2798.87 324.03 2801.27 326.43C2803.67 328.83 2806.94 327.43 2808.27 326.43C2809.77 324.763 2813.47 320.73 2816.27 317.93C2819.07 315.13 2817.44 311.43 2816.27 309.93C2812.1 305.596 2802.67 295.829 2798.27 291.429C2793.87 287.029 2789.1 289.596 2787.27 291.429Z" fill="#353535"/>
<path d="M2829.27 291.429L2809.27 315.429C2805.6 319.829 2811.53 323.148 2814.68 320C2816.18 318.5 2820.75 313.433 2823.18 311C2825.18 309 2827.77 310.362 2829.27 311.93C2832.94 315.763 2840.87 324.03 2843.27 326.43C2845.67 328.83 2848.94 327.43 2850.27 326.43C2851.77 324.763 2855.47 320.73 2858.27 317.93C2861.07 315.13 2859.44 311.43 2858.27 309.93C2854.1 305.596 2844.67 295.829 2840.27 291.429C2835.87 287.029 2831.1 289.596 2829.27 291.429Z" fill="#353535"/>
<path d="M2871.27 291.429L2851.27 315.429C2847.6 319.829 2853.53 323.148 2856.68 320C2858.18 318.5 2862.75 313.433 2865.18 311C2867.18 309 2869.77 310.362 2871.27 311.93C2874.94 315.763 2882.87 324.03 2885.27 326.43C2887.67 328.83 2890.94 327.43 2892.27 326.43C2893.77 324.763 2897.47 320.73 2900.27 317.93C2903.07 315.13 2901.44 311.43 2900.27 309.93C2896.1 305.596 2886.67 295.829 2882.27 291.429C2877.87 287.029 2873.1 289.596 2871.27 291.429Z" fill="#353535"/>
<path d="M2913.27 291.429L2893.27 315.429C2889.6 319.829 2895.53 323.148 2898.68 320C2900.18 318.5 2904.75 313.433 2907.18 311C2909.18 309 2911.77 310.362 2913.27 311.93C2916.94 315.763 2924.87 324.03 2927.27 326.43C2929.67 328.83 2932.94 327.43 2934.27 326.43C2935.77 324.763 2939.47 320.73 2942.27 317.93C2945.07 315.13 2943.44 311.43 2942.27 309.93C2938.1 305.596 2928.67 295.829 2924.27 291.429C2919.87 287.029 2915.1 289.596 2913.27 291.429Z" fill="#353535"/>
<path d="M2955.27 291.429L2935.27 315.429C2931.6 319.829 2937.53 323.148 2940.68 320C2942.18 318.5 2946.75 313.433 2949.18 311C2951.18 309 2953.77 310.362 2955.27 311.93C2958.94 315.763 2966.87 324.03 2969.27 326.43C2971.67 328.83 2974.94 327.43 2976.27 326.43C2977.77 324.763 2981.47 320.73 2984.27 317.93C2987.07 315.13 2985.44 311.43 2984.27 309.93C2980.1 305.596 2970.67 295.829 2966.27 291.429C2961.87 287.029 2957.1 289.596 2955.27 291.429Z" fill="#353535"/>
<path d="M2997.27 291.429L2977.27 315.429C2973.6 319.829 2979.53 323.148 2982.68 320C2984.18 318.5 2988.75 313.433 2991.18 311C2993.18 309 2995.77 310.362 2997.27 311.93C3000.94 315.763 3008.87 324.03 3011.27 326.43C3013.67 328.83 3016.94 327.43 3018.27 326.43C3019.77 324.763 3023.47 320.73 3026.27 317.93C3029.07 315.13 3027.44 311.43 3026.27 309.93C3022.1 305.596 3012.67 295.829 3008.27 291.429C3003.87 287.029 2999.1 289.596 2997.27 291.429Z" fill="#353535"/>
<path d="M3180.68 962.5L3160.68 986.5C3157.01 990.9 3163.55 994.5 3166.18 991C3167.18 989.667 3171.75 984.433 3174.18 982C3176.18 980 3179.18 981.433 3180.68 983C3184.35 986.833 3192.28 995.1 3194.68 997.5C3197.08 999.9 3200.35 998.5 3201.68 997.5C3203.18 995.833 3206.88 991.8 3209.68 989C3212.48 986.2 3210.85 982.5 3209.68 981C3205.51 976.667 3196.08 966.9 3191.68 962.5C3187.28 958.1 3182.51 960.666 3180.68 962.5Z" fill="#353535"/>
<path d="M3222.27 962.429L3202.27 986.429C3198.6 990.829 3204.53 994.148 3207.68 991C3209.18 989.5 3213.75 984.433 3216.18 982C3218.18 980 3220.77 981.362 3222.27 982.93C3225.94 986.763 3233.87 995.03 3236.27 997.43C3238.67 999.83 3241.94 998.43 3243.27 997.43C3244.77 995.763 3248.47 991.73 3251.27 988.93C3254.07 986.13 3252.44 982.43 3251.27 980.93C3247.1 976.596 3237.67 966.829 3233.27 962.429C3228.87 958.029 3224.1 960.596 3222.27 962.429Z" fill="#353535"/>
<path d="M3264.27 962.429L3244.27 986.429C3240.6 990.829 3246.53 994.148 3249.68 991C3251.18 989.5 3255.75 984.433 3258.18 982C3260.18 980 3262.77 981.362 3264.27 982.93C3267.94 986.763 3275.87 995.03 3278.27 997.43C3280.67 999.83 3283.94 998.43 3285.27 997.43C3286.77 995.763 3290.47 991.73 3293.27 988.93C3296.07 986.13 3294.44 982.43 3293.27 980.93C3289.1 976.596 3279.67 966.829 3275.27 962.429C3270.87 958.029 3266.1 960.596 3264.27 962.429Z" fill="#353535"/>
<path d="M3306.27 962.429L3286.27 986.429C3282.6 990.829 3288.53 994.148 3291.68 991C3293.18 989.5 3297.75 984.433 3300.18 982C3302.18 980 3304.77 981.362 3306.27 982.93C3309.94 986.763 3317.87 995.03 3320.27 997.43C3322.67 999.83 3325.94 998.43 3327.27 997.43C3328.77 995.763 3332.47 991.73 3335.27 988.93C3338.07 986.13 3336.44 982.43 3335.27 980.93C3331.1 976.596 3321.67 966.829 3317.27 962.429C3312.87 958.029 3308.1 960.596 3306.27 962.429Z" fill="#353535"/>
<path d="M3348.27 962.429L3328.27 986.429C3324.6 990.829 3330.53 994.148 3333.68 991C3335.18 989.5 3339.75 984.433 3342.18 982C3344.18 980 3346.77 981.362 3348.27 982.93C3351.94 986.763 3359.87 995.03 3362.27 997.43C3364.67 999.83 3367.94 998.43 3369.27 997.43C3370.77 995.763 3374.47 991.73 3377.27 988.93C3380.07 986.13 3378.44 982.43 3377.27 980.93C3373.1 976.596 3363.67 966.829 3359.27 962.429C3354.87 958.029 3350.1 960.596 3348.27 962.429Z" fill="#353535"/>
<path d="M3390.27 962.429L3370.27 986.429C3366.6 990.829 3372.53 994.148 3375.68 991C3377.18 989.5 3381.75 984.433 3384.18 982C3386.18 980 3388.77 981.362 3390.27 982.93C3393.94 986.763 3401.87 995.03 3404.27 997.43C3406.67 999.83 3409.94 998.43 3411.27 997.43C3412.77 995.763 3416.47 991.73 3419.27 988.93C3422.07 986.13 3420.44 982.43 3419.27 980.93C3415.1 976.596 3405.67 966.829 3401.27 962.429C3396.87 958.029 3392.1 960.596 3390.27 962.429Z" fill="#353535"/>
<path d="M3432.27 962.429L3412.27 986.429C3408.6 990.829 3414.53 994.148 3417.68 991C3419.18 989.5 3423.75 984.433 3426.18 982C3428.18 980 3430.77 981.362 3432.27 982.93C3435.94 986.763 3443.87 995.03 3446.27 997.43C3448.67 999.83 3451.94 998.43 3453.27 997.43C3454.77 995.763 3458.47 991.73 3461.27 988.93C3464.07 986.13 3462.44 982.43 3461.27 980.93C3457.1 976.596 3447.67 966.829 3443.27 962.429C3438.87 958.029 3434.1 960.596 3432.27 962.429Z" fill="#353535"/>
</svg>
